<mxfile host="app.diagrams.net" agent="Mozilla/5.0 (Windows NT 10.0; Win64; x64) AppleWebKit/537.36 (KHTML, like Gecko) Chrome/135.0.0.0 Safari/537.36 Edg/135.0.0.0" version="26.2.15">
  <diagram id="mfii_decoder_block" name="多特征交互集成(MFII)解码器块结构图">
    <mxGraphModel dx="1693" dy="941" grid="1" gridSize="10" guides="1" tooltips="1" connect="1" arrows="1" fold="1" page="1" pageScale="1" pageWidth="827" pageHeight="1169" math="0" shadow="0">
      <root>
        <mxCell id="0" />
        <mxCell id="1" parent="0" />
        <mxCell id="title" value="多特征交互集成(MFII)解码器块结构图" style="text;html=1;strokeColor=none;fillColor=none;align=center;verticalAlign=middle;whiteSpace=wrap;rounded=0;fontStyle=1;fontSize=18;" parent="1" vertex="1">
          <mxGeometry x="160" y="40" width="500" height="30" as="geometry" />
        </mxCell>
        <mxCell id="input" value="高级特征输入 x&#xa;(in_channels)" style="rounded=1;whiteSpace=wrap;html=1;fillColor=#dae8fc;strokeColor=#6c8ebf;fontStyle=1;fontSize=14;strokeWidth=3;" parent="1" vertex="1">
          <mxGeometry x="120" y="120" width="160" height="60" as="geometry" />
        </mxCell>
        <mxCell id="skip_input" value="跳跃连接输入 skip&#xa;(可选)" style="rounded=1;whiteSpace=wrap;html=1;fillColor=#d5e8d4;strokeColor=#82b366;fontStyle=1;fontSize=14;strokeWidth=3;" parent="1" vertex="1">
          <mxGeometry x="520" y="120" width="160" height="60" as="geometry" />
        </mxCell>
        <mxCell id="conv1" value="1×1卷积&#xa;(in_channels → in_channels/4)" style="rounded=1;whiteSpace=wrap;html=1;fillColor=#f8cecc;strokeColor=#b85450;fontStyle=1;fontSize=12;strokeWidth=3;" parent="1" vertex="1">
          <mxGeometry x="120" y="220" width="160" height="60" as="geometry" />
        </mxCell>
        <mxCell id="bn1" value="批量归一化&#xa;(BatchNorm2d)" style="rounded=1;whiteSpace=wrap;html=1;fillColor=#fff2cc;strokeColor=#d6b656;fontStyle=1;fontSize=12;strokeWidth=3;" parent="1" vertex="1">
          <mxGeometry x="120" y="320" width="160" height="60" as="geometry" />
        </mxCell>
        <mxCell id="relu1" value="ReLU激活&#xa;(inplace=True)" style="rounded=1;whiteSpace=wrap;html=1;fillColor=#ffe6cc;strokeColor=#d79b00;fontStyle=1;fontSize=12;strokeWidth=3;" parent="1" vertex="1">
          <mxGeometry x="120" y="420" width="160" height="60" as="geometry" />
        </mxCell>
        <mxCell id="deconv2" value="3×3转置卷积&#xa;(stride=2, padding=1, output_padding=1)" style="rounded=1;whiteSpace=wrap;html=1;fillColor=#e1d5e7;strokeColor=#9673a6;fontStyle=1;fontSize=12;strokeWidth=3;" parent="1" vertex="1">
          <mxGeometry x="120" y="520" width="160" height="60" as="geometry" />
        </mxCell>
        <mxCell id="bn2" value="批量归一化&#xa;(BatchNorm2d)" style="rounded=1;whiteSpace=wrap;html=1;fillColor=#fff2cc;strokeColor=#d6b656;fontStyle=1;fontSize=12;strokeWidth=3;" parent="1" vertex="1">
          <mxGeometry x="120" y="620" width="160" height="60" as="geometry" />
        </mxCell>
        <mxCell id="relu2" value="ReLU激活&#xa;(inplace=True)" style="rounded=1;whiteSpace=wrap;html=1;fillColor=#ffe6cc;strokeColor=#d79b00;fontStyle=1;fontSize=12;strokeWidth=3;" parent="1" vertex="1">
          <mxGeometry x="120" y="720" width="160" height="60" as="geometry" />
        </mxCell>
        <mxCell id="conv3" value="1×1卷积&#xa;(in_channels/4 → n_filters)" style="rounded=1;whiteSpace=wrap;html=1;fillColor=#f8cecc;strokeColor=#b85450;fontStyle=1;fontSize=12;strokeWidth=3;" parent="1" vertex="1">
          <mxGeometry x="320" y="320" width="160" height="60" as="geometry" />
        </mxCell>
        <mxCell id="bn3" value="批量归一化&#xa;(BatchNorm2d)" style="rounded=1;whiteSpace=wrap;html=1;fillColor=#fff2cc;strokeColor=#d6b656;fontStyle=1;fontSize=12;strokeWidth=3;" parent="1" vertex="1">
          <mxGeometry x="320" y="420" width="160" height="60" as="geometry" />
        </mxCell>
        <mxCell id="feature_fusion" value="特征融合&#xa;(加法操作)" style="rounded=1;whiteSpace=wrap;html=1;fillColor=#d5e8d4;strokeColor=#82b366;fontStyle=1;fontSize=12;strokeWidth=3;" parent="1" vertex="1">
          <mxGeometry x="520" y="420" width="160" height="60" as="geometry" />
        </mxCell>
        <mxCell id="size_check" value="尺寸检查与调整&#xa;(F.interpolate)" style="rounded=1;whiteSpace=wrap;html=1;fillColor=#b1ddf0;strokeColor=#10739e;fontStyle=1;fontSize=12;strokeWidth=3;" parent="1" vertex="1">
          <mxGeometry x="520" y="320" width="160" height="60" as="geometry" />
        </mxCell>
        <mxCell id="relu3" value="ReLU激活&#xa;(inplace=True)" style="rounded=1;whiteSpace=wrap;html=1;fillColor=#ffe6cc;strokeColor=#d79b00;fontStyle=1;fontSize=12;strokeWidth=3;" parent="1" vertex="1">
          <mxGeometry x="520" y="520" width="160" height="60" as="geometry" />
        </mxCell>
        <mxCell id="eca" value="ECA模块&#xa;(高效通道注意力)" style="rounded=1;whiteSpace=wrap;html=1;fillColor=#fff2cc;strokeColor=#d6b656;fontStyle=1;fontSize=12;strokeWidth=3;" parent="1" vertex="1">
          <mxGeometry x="520" y="620" width="160" height="60" as="geometry" />
        </mxCell>
        <mxCell id="output" value="解码器输出&#xa;(n_filters)" style="rounded=1;whiteSpace=wrap;html=1;fillColor=#dae8fc;strokeColor=#6c8ebf;fontStyle=1;fontSize=14;strokeWidth=3;" parent="1" vertex="1">
          <mxGeometry x="520" y="720" width="160" height="60" as="geometry" />
        </mxCell>
        <mxCell id="arrow1" value="" style="endArrow=classic;html=1;rounded=1;exitX=0.5;exitY=1;exitDx=0;exitDy=0;entryX=0.5;entryY=0;entryDx=0;entryDy=0;strokeWidth=3;jumpStyle=arc;jumpSize=6;" parent="1" source="input" target="conv1" edge="1">
          <mxGeometry width="50" height="50" relative="1" as="geometry">
            <mxPoint x="390" y="410" as="sourcePoint" />
            <mxPoint x="440" y="360" as="targetPoint" />
          </mxGeometry>
        </mxCell>
        <mxCell id="arrow2" value="" style="endArrow=classic;html=1;rounded=1;exitX=0.5;exitY=1;exitDx=0;exitDy=0;entryX=0.5;entryY=0;entryDx=0;entryDy=0;strokeWidth=3;jumpStyle=arc;jumpSize=6;" parent="1" source="conv1" target="bn1" edge="1">
          <mxGeometry width="50" height="50" relative="1" as="geometry">
            <mxPoint x="390" y="410" as="sourcePoint" />
            <mxPoint x="440" y="360" as="targetPoint" />
          </mxGeometry>
        </mxCell>
        <mxCell id="arrow3" value="" style="endArrow=classic;html=1;rounded=1;exitX=0.5;exitY=1;exitDx=0;exitDy=0;entryX=0.5;entryY=0;entryDx=0;entryDy=0;strokeWidth=3;jumpStyle=arc;jumpSize=6;" parent="1" source="bn1" target="relu1" edge="1">
          <mxGeometry width="50" height="50" relative="1" as="geometry">
            <mxPoint x="390" y="410" as="sourcePoint" />
            <mxPoint x="440" y="360" as="targetPoint" />
          </mxGeometry>
        </mxCell>
        <mxCell id="arrow4" value="" style="endArrow=classic;html=1;rounded=1;exitX=0.5;exitY=1;exitDx=0;exitDy=0;entryX=0.5;entryY=0;entryDx=0;entryDy=0;strokeWidth=3;jumpStyle=arc;jumpSize=6;" parent="1" source="relu1" target="deconv2" edge="1">
          <mxGeometry width="50" height="50" relative="1" as="geometry">
            <mxPoint x="390" y="410" as="sourcePoint" />
            <mxPoint x="440" y="360" as="targetPoint" />
          </mxGeometry>
        </mxCell>
        <mxCell id="arrow5" value="" style="endArrow=classic;html=1;rounded=1;exitX=0.5;exitY=1;exitDx=0;exitDy=0;entryX=0.5;entryY=0;entryDx=0;entryDy=0;strokeWidth=3;jumpStyle=arc;jumpSize=6;" parent="1" source="deconv2" target="bn2" edge="1">
          <mxGeometry width="50" height="50" relative="1" as="geometry">
            <mxPoint x="390" y="410" as="sourcePoint" />
            <mxPoint x="440" y="360" as="targetPoint" />
          </mxGeometry>
        </mxCell>
        <mxCell id="arrow6" value="" style="endArrow=classic;html=1;rounded=1;exitX=0.5;exitY=1;exitDx=0;exitDy=0;entryX=0.5;entryY=0;entryDx=0;entryDy=0;strokeWidth=3;jumpStyle=arc;jumpSize=6;" parent="1" source="bn2" target="relu2" edge="1">
          <mxGeometry width="50" height="50" relative="1" as="geometry">
            <mxPoint x="390" y="410" as="sourcePoint" />
            <mxPoint x="440" y="360" as="targetPoint" />
          </mxGeometry>
        </mxCell>
        <mxCell id="arrow7" value="" style="endArrow=classic;html=1;rounded=1;entryX=0;entryY=0.5;entryDx=0;entryDy=0;strokeWidth=3;jumpStyle=arc;jumpSize=6;edgeStyle=orthogonalEdgeStyle;" parent="1" target="conv3" edge="1">
          <mxGeometry width="50" height="50" relative="1" as="geometry">
            <mxPoint x="280" y="749.75" as="sourcePoint" />
            <mxPoint x="300" y="349.75" as="targetPoint" />
          </mxGeometry>
        </mxCell>
        <mxCell id="arrow8" value="" style="endArrow=classic;html=1;rounded=1;exitX=0.5;exitY=1;exitDx=0;exitDy=0;entryX=0.5;entryY=0;entryDx=0;entryDy=0;strokeWidth=3;jumpStyle=arc;jumpSize=6;" parent="1" source="conv3" target="bn3" edge="1">
          <mxGeometry width="50" height="50" relative="1" as="geometry">
            <mxPoint x="390" y="410" as="sourcePoint" />
            <mxPoint x="440" y="360" as="targetPoint" />
          </mxGeometry>
        </mxCell>
        <mxCell id="arrow9" value="" style="endArrow=classic;html=1;rounded=1;exitX=1;exitY=0.5;exitDx=0;exitDy=0;entryX=0;entryY=0.5;entryDx=0;entryDy=0;strokeWidth=3;jumpStyle=arc;jumpSize=6;" parent="1" source="bn3" target="feature_fusion" edge="1">
          <mxGeometry width="50" height="50" relative="1" as="geometry">
            <mxPoint x="390" y="410" as="sourcePoint" />
            <mxPoint x="440" y="360" as="targetPoint" />
          </mxGeometry>
        </mxCell>
        <mxCell id="arrow10" value="" style="endArrow=classic;html=1;rounded=1;exitX=0.5;exitY=1;exitDx=0;exitDy=0;entryX=0.5;entryY=0;entryDx=0;entryDy=0;strokeWidth=3;jumpStyle=arc;jumpSize=6;" parent="1" source="skip_input" target="size_check" edge="1">
          <mxGeometry width="50" height="50" relative="1" as="geometry">
            <mxPoint x="390" y="410" as="sourcePoint" />
            <mxPoint x="440" y="360" as="targetPoint" />
          </mxGeometry>
        </mxCell>
        <mxCell id="arrow11" value="" style="endArrow=classic;html=1;rounded=1;exitX=0.5;exitY=1;exitDx=0;exitDy=0;entryX=0.5;entryY=0;entryDx=0;entryDy=0;strokeWidth=3;jumpStyle=arc;jumpSize=6;" parent="1" source="size_check" target="feature_fusion" edge="1">
          <mxGeometry width="50" height="50" relative="1" as="geometry">
            <mxPoint x="390" y="410" as="sourcePoint" />
            <mxPoint x="440" y="360" as="targetPoint" />
          </mxGeometry>
        </mxCell>
        <mxCell id="arrow12" value="" style="endArrow=classic;html=1;rounded=1;exitX=0.5;exitY=1;exitDx=0;exitDy=0;entryX=0.5;entryY=0;entryDx=0;entryDy=0;strokeWidth=3;jumpStyle=arc;jumpSize=6;" parent="1" source="feature_fusion" target="relu3" edge="1">
          <mxGeometry width="50" height="50" relative="1" as="geometry">
            <mxPoint x="390" y="410" as="sourcePoint" />
            <mxPoint x="440" y="360" as="targetPoint" />
          </mxGeometry>
        </mxCell>
        <mxCell id="arrow13" value="" style="endArrow=classic;html=1;rounded=1;exitX=0.5;exitY=1;exitDx=0;exitDy=0;entryX=0.5;entryY=0;entryDx=0;entryDy=0;strokeWidth=3;jumpStyle=arc;jumpSize=6;" parent="1" source="relu3" target="eca" edge="1">
          <mxGeometry width="50" height="50" relative="1" as="geometry">
            <mxPoint x="390" y="410" as="sourcePoint" />
            <mxPoint x="440" y="360" as="targetPoint" />
          </mxGeometry>
        </mxCell>
        <mxCell id="arrow14" value="" style="endArrow=classic;html=1;rounded=1;exitX=0.5;exitY=1;exitDx=0;exitDy=0;entryX=0.5;entryY=0;entryDx=0;entryDy=0;strokeWidth=3;jumpStyle=arc;jumpSize=6;" parent="1" source="eca" target="output" edge="1">
          <mxGeometry width="50" height="50" relative="1" as="geometry">
            <mxPoint x="390" y="410" as="sourcePoint" />
            <mxPoint x="440" y="360" as="targetPoint" />
          </mxGeometry>
        </mxCell>
        <mxCell id="upsampling" value="上采样路径" style="text;html=1;strokeColor=#6F0000;fillColor=#a20025;align=center;verticalAlign=middle;whiteSpace=wrap;rounded=1;fontStyle=1;fontSize=14;labelBackgroundColor=none;labelBorderColor=none;textShadow=0;fontColor=#ffffff;glass=0;shadow=0;dashed=1;strokeWidth=3;" parent="1" vertex="1">
          <mxGeometry x="120" y="80" width="160" height="30" as="geometry" />
        </mxCell>
        <mxCell id="feature_enhance" value="特征增强路径" style="text;html=1;fillColor=#a20025;align=center;verticalAlign=middle;whiteSpace=wrap;rounded=1;fontStyle=1;fontSize=14;strokeColor=#6F0000;fontColor=#ffffff;strokeWidth=3;dashed=1;" parent="1" vertex="1">
          <mxGeometry x="520" y="80" width="160" height="30" as="geometry" />
        </mxCell>
        <mxCell id="function_title" value="MFII解码器块功能说明" style="text;html=1;strokeColor=none;fillColor=none;align=center;verticalAlign=middle;whiteSpace=wrap;rounded=0;fontStyle=1;fontSize=16;" parent="1" vertex="1">
          <mxGeometry x="50" y="820" width="700" height="30" as="geometry" />
        </mxCell>
        <mxCell id="function_detail" value="功能详情" style="swimlane;fontStyle=1;childLayout=stackLayout;horizontal=1;startSize=30;horizontalStack=0;resizeParent=1;resizeParentMax=0;resizeLast=0;collapsible=1;marginBottom=0;fontSize=14;strokeWidth=3;fillColor=#a20025;fontColor=#ffffff;strokeColor=#6F0000;" parent="1" vertex="1">
          <mxGeometry x="140" y="860" width="520" height="150" as="geometry" />
        </mxCell>
        <mxCell id="function1" value="1. 解码器通过维度减少、上采样和维度恢复的步骤逐步恢复特征分辨率" style="text;strokeColor=none;fillColor=none;align=left;verticalAlign=middle;spacingLeft=4;spacingRight=4;overflow=hidden;points=[[0,0.5],[1,0.5]];portConstraint=eastwest;rotatable=0;fontStyle=1;fontSize=12;" parent="function_detail" vertex="1">
          <mxGeometry y="30" width="520" height="30" as="geometry" />
        </mxCell>
        <mxCell id="function2" value="2. 尺寸检查和调整确保跳跃连接特征与上采样特征尺寸匹配，以便进行有效融合" style="text;strokeColor=none;fillColor=none;align=left;verticalAlign=middle;spacingLeft=4;spacingRight=4;overflow=hidden;points=[[0,0.5],[1,0.5]];portConstraint=eastwest;rotatable=0;fontStyle=1;fontSize=12;" parent="function_detail" vertex="1">
          <mxGeometry y="60" width="520" height="30" as="geometry" />
        </mxCell>
        <mxCell id="function3" value="3. ECA模块增强重要特征通道，提高特征的表达能力和识别性能" style="text;strokeColor=none;fillColor=none;align=left;verticalAlign=middle;spacingLeft=4;spacingRight=4;overflow=hidden;points=[[0,0.5],[1,0.5]];portConstraint=eastwest;rotatable=0;fontStyle=1;fontSize=12;" parent="function_detail" vertex="1">
          <mxGeometry y="90" width="520" height="30" as="geometry" />
        </mxCell>
        <mxCell id="function4" value="4. 多步骤的非线性变换和归一化操作增强特征提取能力和网络稳定性" style="text;strokeColor=none;fillColor=none;align=left;verticalAlign=middle;spacingLeft=4;spacingRight=4;overflow=hidden;points=[[0,0.5],[1,0.5]];portConstraint=eastwest;rotatable=0;fontStyle=1;fontSize=12;" parent="function_detail" vertex="1">
          <mxGeometry y="120" width="520" height="30" as="geometry" />
        </mxCell>
      </root>
    </mxGraphModel>
  </diagram>
</mxfile>
